# xmcd CD database file
#
# Track frame offsets:
#	150
#	18292
#	35318
#	47149
#	67625
#	83745
#	102325
#	117223
#	136188
#	159431
#	178555
#	197396
#
# Disc length: 2853 seconds
#
# Revision: 0
# Processed by: cddbd v1.5.2PL0 Copyright (c) Steve Scherf et al.
# Submitted via: CDex 1.70beta2
#
DISCID=870b230c
DTITLE=The Bob Boyd Sounds - Sounds LIke Christmas
DYEAR=2007
DGENRE=Jazz
TTITLE0=Jingle Bells
TTITLE1=Away In A Manger - Do You Hear What I Hear?
TTITLE2=Rudolph The Red
TTITLE3=I'll Be Home For Christmas
TTITLE4=Deck The Halls
TTITLE5=Silent Night - Quiet Evening
TTITLE6=God Rest Ye Merry Gentlemen
TTITLE7=All Those Christmas Cliches
TTITLE8=Santa Claus Is Coming To Town
TTITLE9=White Christmas
TTITLE10=Winter Wonderland
TTITLE11=Fireplace
EXTD=YEAR: 2007
EXTT0=
EXTT1=
EXTT2=
EXTT3=
EXTT4=
EXTT5=
EXTT6=
EXTT7=
EXTT8=
EXTT9=
EXTT10=
EXTT11=
PLAYORDER=
